# xmcd
#
# Track frame offsets:
#	150
#	20502
#	46819
#	67926
#	88555
#	102445
#	120765
#	137256
#	153012
#	174154
#	198382
#	221439
#	242837
#
# Disc length: 4440 seconds
#
# Revision: 1
# Processed by: cddbd v1.5.1PL0 Copyright (c) Steve Scherf et al.
# Submitted via: audiograbber 1.82.01
#
DISCID=9611560d
DTITLE=Mana Mana - Kuolla elävänä - live 2001
DYEAR=1900
DGENRE=Rock and Roll
TTITLE0=Valtatie
TTITLE1=Syyttömänä kirottu
TTITLE2=Ilmestyskirjan peto
TTITLE3=Suruni tie
TTITLE4=Ketä sä rakastat
TTITLE5=Mikä on sun taivas
TTITLE6=Totuus palaa
TTITLE7=Hän on paha
TTITLE8=Ruusu, tulppaani ja peyote
TTITLE9=Liisa
TTITLE10=Maria Magdalena
TTITLE11=Vaarallista
TTITLE12=Paniikki on ekstaasin veli
EXTD=
EXTT0=
EXTT1=
EXTT2=
EXTT3=
EXTT4=
EXTT5=
EXTT6=
EXTT7=
EXTT8=
EXTT9=
EXTT10=
EXTT11=
EXTT12=
PLAYORDER=
